<svg id="Layer_1" data-name="Layer 1" xmlns="http://www.w3.org/2000/svg" viewBox="0 0 500 227.03"><defs><style>.cls-1{fill:#fff;}</style></defs><title>Icons</title><path class="cls-1" d="M13.77,214.35a8.27,8.27,0,0,1-4.11-15.44l149.78-85.59a8.27,8.27,0,0,1,12.3,6.15L178.55,174l99.93-73a8.27,8.27,0,0,1,10.72.83L314.4,127,458.55,32.28a8.27,8.27,0,0,1,9.08,13.82L317.85,144.52a8.28,8.28,0,0,1-10.38-1.06l-25-25L177,195.64A8.26,8.26,0,0,1,163.9,190l-7-56.17-139,79.44A8.2,8.2,0,0,1,13.77,214.35Z"/><circle class="cls-1" cx="471.65" cy="34.91" r="25.35"/><circle class="cls-1" cx="159.26" cy="120.5" r="21.81"/><circle class="cls-1" cx="283.36" cy="111.94" r="25.78"/></svg>