<svg id="Layer_1" data-name="Layer 1" xmlns="http://www.w3.org/2000/svg" viewBox="0 0 292 227.03"><defs><style>.cls-1{fill:#fff;}</style></defs><title>Icons</title><polygon class="cls-1" points="98.85 107.13 155.48 168.68 39.77 217.92 33.61 210.53 98.85 107.13"/><path class="cls-1" d="M91.47,62.82,103.78,48s19.69,30.78,12.31,65.24C116.09,112.05,103.78,69,91.47,62.82Z"/><path class="cls-1" d="M132.09,54.2s14.77,3.69,20.92-3.69c0,0,9.85,46.77-29.54,78.78C122.24,130.52,150.55,73.89,132.09,54.2Z"/><path class="cls-1" d="M139.47,144.06S185,110.82,188.71,77.59c1.23,1.23,16,1.23,16,1.23S181.33,131.75,139.47,144.06Z"/><path class="cls-1" d="M148.09,151.44s49.24-23.38,78.78-14.77l-2.46,19.7S197.33,141.6,148.09,151.44Z"/><polygon class="cls-1" points="128.65 -3.03 139.27 6.39 153.06 2.98 147.38 16 154.88 28.05 140.75 26.68 131.6 37.54 128.55 23.67 115.39 18.33 127.63 11.14 128.65 -3.03"/><polygon class="cls-1" points="197.35 35.73 200.59 44.83 209.92 47.32 202.26 53.21 202.78 62.85 194.81 57.39 185.8 60.86 188.53 51.6 182.44 44.1 192.1 43.83 197.35 35.73"/><polygon class="cls-1" points="64.3 67.04 66.44 73.04 72.59 74.68 67.54 78.57 67.88 84.92 62.63 81.33 56.69 83.61 58.48 77.51 54.47 72.56 60.84 72.39 64.3 67.04"/><polygon class="cls-1" points="198.12 168.03 199.19 171.05 202.29 171.88 199.75 173.83 199.92 177.03 197.28 175.22 194.28 176.37 195.19 173.3 193.17 170.81 196.38 170.72 198.12 168.03"/><polygon class="cls-1" points="232.54 82.5 241.51 92.72 255 91.12 248.06 102.8 253.74 115.14 240.49 112.15 230.51 121.37 229.26 107.84 217.41 101.2 229.89 95.83 232.54 82.5"/></svg>