<svg id="Layer_1" data-name="Layer 1" xmlns="http://www.w3.org/2000/svg" viewBox="0 0 500 349.03"><defs><style>.cls-1{fill:#fff;}</style></defs><title>Icons</title><path class="cls-1" d="M374.75,235a15.53,15.53,0,1,1-15.54-15.54A15.54,15.54,0,0,1,374.75,235Zm0,0"/><path class="cls-1" d="M281.56,110.77A15.53,15.53,0,1,1,266,95.24a15.53,15.53,0,0,1,15.53,15.53Zm0,0"/><path class="cls-1" d="M467.94,2.05H172.84a15.62,15.62,0,0,0-11,4.53l-20.07,20.1L121.72,6.58a15.64,15.64,0,0,0-11-4.53H33.06A31.12,31.12,0,0,0,2,33.11V312.67a31.1,31.1,0,0,0,31.06,31.07h77.66a15.65,15.65,0,0,0,11-4.54l20.06-20.1,20.07,20.07a15.53,15.53,0,0,0,11,4.57h295.1A31.08,31.08,0,0,0,499,312.67V33.11A31.1,31.1,0,0,0,467.94,2.05ZM157.31,281.61H126.25V250.55h31.06Zm0-62.13H126.25V188.42h31.06Zm0-62.12H126.25V126.3h31.06Zm0-62.12H126.25V64.17h31.06ZM266,64.17a46.6,46.6,0,1,1-46.59,46.6A46.65,46.65,0,0,1,266,64.17ZM235,281.61A15.53,15.53,0,0,1,223,256.14L378.35,69.77a15.53,15.53,0,1,1,23.83,19.91L246.86,276.05A15.52,15.52,0,0,1,235,281.61Zm124.24,0A46.6,46.6,0,1,1,405.81,235a46.65,46.65,0,0,1-46.6,46.59Zm0,0"/></svg>