<svg id="Layer_1" data-name="Layer 1" xmlns="http://www.w3.org/2000/svg" viewBox="0 0 1000 1000"><defs><style>.cls-1{fill:#fff;}</style></defs><title>Icons</title><path class="cls-1" d="M498.91,985C229.3,983.84,15.64,762.72,20.14,493.26,24.46,235.07,241.06,23,503.29,25c265.89,2,479.39,218.14,477.6,483.57C979.12,771.49,761.29,986.83,498.91,985ZM610.78,634.88c0-54.54.44-109.07-.13-163.6-.47-44.17-28-75.65-71.71-79.3a437.68,437.68,0,0,0-83.87,1.1c-36.72,4-64.7,35.51-65,72.45q-1.16,165.93,0,331.87c.37,49.27,43.3,79.84,80.91,76.73a330.94,330.94,0,0,1,56.05,0c46,4,85.69-36.18,84.11-83.45C609.47,738.8,610.81,686.82,610.78,634.88ZM398.33,222.13c-.18,57.93,44.16,104,101,105,54.69.94,103.19-46.58,103.5-101.41.32-56.87-45.78-103.57-102.28-103.61C444.81,122.08,398.5,167.37,398.33,222.13Z"/></svg>