<svg id="Layer_1" data-name="Layer 1" xmlns="http://www.w3.org/2000/svg" viewBox="0 0 1000 1000"><defs><style>.cls-1{fill:#fff;}</style></defs><title>Icons</title><path class="cls-1" d="M484,28h23.24a24.76,24.76,0,0,0,4.83,1.16,480.92,480.92,0,0,1,87.81,11.11,473.75,473.75,0,0,1,370.4,437.8,487.62,487.62,0,0,1-3.46,90.81,462.68,462.68,0,0,1-22,91.45A476.88,476.88,0,0,1,688.6,938.51a462.77,462.77,0,0,1-155,39.1c-21.25,1.57-42.7.78-64,.45-26.86-.42-53.32-4.72-79.43-10.68A467.32,467.32,0,0,1,252.4,912.09,476,476,0,0,1,104.7,773.63,470.82,470.82,0,0,1,35.5,621.89,463.34,463.34,0,0,1,21.18,520.54a27.86,27.86,0,0,0-1.18-5.3V492a53.43,53.43,0,0,0,1.25-6.19c1.36-15.87,1.93-31.85,4.1-47.61A465.48,465.48,0,0,1,47.9,345.45,476.56,476.56,0,0,1,308.5,67.27,462,462,0,0,1,465.3,30C471.55,29.66,477.77,28.69,484,28ZM631.55,759.28c13.84,0,23-1.9,31.9-8.11,5.66-3.93,10.6-9,15.55-13.86q32.6-32.14,65-64.5a24.26,24.26,0,0,0,7.3-15.67c1-12.13-5.69-19.71-15.37-25.43q-50.22-29.64-100.45-59.26A34.31,34.31,0,0,0,593.19,578c-9,9-18.07,17.89-26.73,27.18-4.44,4.76-9.53,6.05-15.1,3.84-9.46-3.76-19.24-7.22-27.84-12.52-43.62-26.84-78.88-62.72-109.31-103.54a154.4,154.4,0,0,1-23-43.32c-2.22-6.65-1.35-11.77,3.95-16.67,8.07-7.48,15.78-15.35,23.37-23.31,8.33-8.74,12.18-19.23,8.85-31.09-1.65-5.85-5.17-11.21-8-16.69q-25.24-48.14-50.59-96.23c-3.48-6.62-8.23-12.11-15.13-15.21-9.05-4.06-19.08-1.42-27.42,6.91-22.7,22.66-45,45.74-68.19,67.9-14.31,13.69-18.6,30.36-17.6,48.91,1.3,24.13,7.34,47.37,15.74,69.95,16.81,45.19,42.38,85.35,72.27,122.82C354,599,383,627.81,413.57,655.06c41.05,36.59,86.67,66,137.73,86.71A235.68,235.68,0,0,0,631.55,759.28Z"/></svg>