<svg id="Layer_1" data-name="Layer 1" xmlns="http://www.w3.org/2000/svg" xmlns:xlink="http://www.w3.org/1999/xlink" viewBox="0 0 1000 1000"><defs><style>.cls-1{fill:url(#linear-gradient);}</style><linearGradient id="linear-gradient" x1="7.35" y1="499.46" x2="993" y2="499.46" gradientUnits="userSpaceOnUse"><stop offset="0" stop-color="#b3b946"/><stop offset="1" stop-color="#4f9b47"/></linearGradient></defs><title>Icons</title><path class="cls-1" d="M68.9,499.46A61.57,61.57,0,0,0,120.21,472l13.23-19.85c6.62,26.89,29.78,47.28,58.71,47.28a61.56,61.56,0,0,0,61.61-61.59,61.6,61.6,0,0,0,123.2,0,61.6,61.6,0,0,0,123.2,0,61.61,61.61,0,0,0,123.21,0,61.61,61.61,0,0,0,123.21,0,61.56,61.56,0,0,0,61.59,61.59c29,0,52.1-20.39,58.72-47.28L880.13,472a61.6,61.6,0,0,0,102.5-68.34L869.78,253.06H623.37V191.45H685a61.56,61.56,0,0,0,61.61-61.59V68.25A61.57,61.57,0,0,0,685,6.65H315.37a61.57,61.57,0,0,0-61.61,61.6v61.61a61.56,61.56,0,0,0,61.61,61.59H377v61.61H130.56L17.7,403.69a61.6,61.6,0,0,0,51.2,95.77ZM608,52.86h77V99.05H623.36v30.81H608Zm-107.81,0h77v77h-77Zm-92.4,0h15.4V83.65H454V52.86h15.4v77H454V99.05h-30.8v30.81h-15.4Zm-92.4,77V114.45h46.2V99.05h-46.2V52.86H377V68.25h-46.2v15.4H377v46.21Zm123.21,61.59h123.2v61.61H438.57ZM993,992.28H7.35a92.43,92.43,0,0,1,92.4-92.4H900.58a92.43,92.43,0,0,1,92.4,92.4Zm-800.83-462H130.56V869.08H869.78V530.26Zm0,277.21V591.87H377v215.6Zm246.42,0V591.87h369.6v215.6Zm-154-123.2a30.8,30.8,0,1,1-30.8-30.8,30.79,30.79,0,0,1,30.8,30.8Zm385-600.62H623.36V68.25h46.21Zm-154-15.4h46.2v46.2h-46.2Zm0,0"/></svg>