<svg xmlns="http://www.w3.org/2000/svg" viewBox="0 0 402.99 402.45"><defs><style>.cls-1{fill:rgba(255,255,255,0.3);}</style></defs><title>Asset 1</title><g id="Layer_2" data-name="Layer 2"><g id="Layer_1-2" data-name="Layer 1"><path class="cls-1" d="M403,150.33V170.8a20.27,20.27,0,0,0-.87,2.48,50.66,50.66,0,0,1-15.62,27.11,53.46,53.46,0,0,1-21.1,11.51V377.14c7.49,0,14.81.29,22.09-.08,7.49-.37,12.63,2.47,15.5,9.4v7.08c-3.14,6.77-8.41,8.92-15.81,8.91q-185.69-.26-371.36,0c-7.41,0-12.64-2.2-15.82-8.91v-7.08c2.89-6.89,8-9.78,15.5-9.4,7.28.38,14.6.08,22.09.08V212l-4.37-1.59c-11.94-4.35-21.22-12-27-23.25C3.51,182,2,176.26,0,170.8V150.33c1.44,0,2.88.13,4.32.13H398.67C400.11,150.46,401.55,150.38,403,150.33Zm-100.7,20.78c-5.77,23.5-19.78,39.36-44.13,41.81C227.67,216,209.38,199.86,201.39,171c-6.5,26.38-22.95,40.78-50,42.87V376.92H339.84V212C321,206.51,306.93,192.6,302.29,171.11Zm-201.55-.05C96,192.14,83.41,205.68,63.24,212V377h75.07V212Q107.8,202.45,100.74,171.06Z"/><path class="cls-1" d="M0,137.74V137c.79-1.32,1.67-2.6,2.36-4q23.15-46.2,46.17-92.43c1.3-2.62,2.75-3.49,5.65-3.49q147.31.12,294.62,0c2.9,0,4.36.87,5.66,3.48Q377.41,86.83,400.62,133c.69,1.38,1.57,2.66,2.37,4v.79c-1.58,0-3.15.13-4.72.13H4.71C3.14,137.87,1.57,137.78,0,137.74ZM251,56.31c-6.35,0-9.12,4.76-6.56,9.49q13.44,24.86,27.13,49.56c2,3.57,5.47,4.51,8.64,2.68,3-1.73,4-5.14,2.15-8.52-9-16.55-18-33.09-27.18-49.53C254.13,58.18,251.86,57.07,251,56.31ZM125.74,118.85c3.21.09,5-1.8,6.29-4.45Q140.58,97.17,149.21,80c2.51-5,5.1-10,7.48-15.14a5.91,5.91,0,0,0-2.51-7.77,6.2,6.2,0,0,0-8,1.85,15.44,15.44,0,0,0-1.36,2.38Q133,84.81,121.25,108.34a15.88,15.88,0,0,0-1.23,2.89A6,6,0,0,0,125.74,118.85Zm-48.73,0c.9-.81,3.08-2.08,4.22-4,2.49-4.14,4.46-8.59,6.62-12.92q9-18.09,18.07-36.18c2-3.94.6-7.82-3-9.1s-6.34.22-8.44,4.41q-9.6,19.13-19.12,38.29C73.58,103,71.6,106.56,70,110.28,68.2,114.56,71.07,118.82,77,118.85ZM303.57,56.3c-6.17.05-8.83,4.63-6.56,9.32,4.1,8.48,8.39,16.88,12.61,25.3,4.1,8.19,8.14,16.42,12.37,24.55a6.1,6.1,0,0,0,10.94-5.39c-8.3-16.77-16.64-33.53-25.19-50.18C306.81,58.1,304.45,57,303.57,56.3ZM207.78,87.53c0-8,.06-16,0-24,0-4.41-2.11-6.9-5.62-7.24-4.17-.4-6.9,2.44-6.92,7.53q-.09,23.55,0,47.11c0,5.09,2.28,7.83,6.24,7.86s6.28-2.68,6.32-7.76C207.83,103.23,207.79,95.38,207.78,87.53Z"/><path class="cls-1" d="M345.53,0c4.1,3.23,7.46,6.78,7.12,12.63a12.31,12.31,0,0,1-11.77,11.9c-.52,0-1.05,0-1.57,0H63.7c-6.11,0-10.5-2.72-12.49-7.68a12.81,12.81,0,0,1,3.06-14.1c1-1,2.12-1.84,3.19-2.75Z"/><path class="cls-1" d="M283.23,236.43l8.32,8.64L220.64,316l-8.6-8.35Z"/><path class="cls-1" d="M256.15,315.72l-8.44-7.9,35.54-35.35,7.43,8.76Z"/><path class="cls-1" d="M248,236.92l8.17,8-35.71,35.73-7.82-8.3Z"/><path class="cls-1" d="M113.21,326.77A12.2,12.2,0,0,1,101.57,319,13,13,0,0,1,104.72,305a8.1,8.1,0,0,0,2.22-4.84c.27-5.61,0-11.25.12-16.88.06-4.53,0-8.53-3.84-12.29-4.58-4.45-3.11-12.57,1.94-16.8a12.77,12.77,0,0,1,17.42,1c4.64,4.92,4.76,12.79-.21,17.3a7.86,7.86,0,0,0-2.78,6.75c.14,7.19,0,14.4.13,21.6a6.2,6.2,0,0,0,1.81,3.87c4.21,4,5.61,9.09,3.62,14.26C123.24,323.88,118.82,326.79,113.21,326.77Z"/></g></g></svg>
