<svg id="Layer_1" data-name="Layer 1" xmlns="http://www.w3.org/2000/svg" viewBox="0 0 204.51 227.03"><defs><style>.cls-1{fill:#fff;}</style></defs><title>Icons</title><path class="cls-1" d="M93.63,223.64c-5-1.15-10.08-2-15-3.49-38.44-11.23-64.81-48.69-62.36-88.41,2.57-41.64,32-75.31,71.93-82.26,47.1-8.2,93.22,25.71,99.53,73.19,6.16,46.36-21.55,88-65.73,98.73-3.35.82-6.74,1.5-10.11,2.24ZM166.24,134c-1.87-37.07-31.18-64.36-67.35-62.72-35,1.59-61.87,32.71-60,69.5,1.76,34.37,32.37,61.7,67.23,60C140.12,199.08,168,168.15,166.24,134Z"/><path class="cls-1" d="M126.5,2.73V27.32H114.74V39.83H91V27.48H78.12V2.73Z"/><path class="cls-1" d="M10.57,56.59,26.19,41.86l15.73,15L25.62,72.05l-15-14.55Z"/><path class="cls-1" d="M195,57.5l-15.61,15L163.63,57.42,180,42.54,195,56.59Z"/><path class="cls-1" d="M106.73,131.37h25.62L77.06,180.85l-.76-.57,20.64-37.85H73.66l-.53-1,54.58-50,.8.61Z"/></svg>